<?xml version="1.0" encoding="UTF-8" standalone="no"?>
<svg
   width="1000"
   height="441.48572"
   viewBox="0 0 1000 441.48571"
   version="1.1"
   id="svg2"
   sodipodi:docname="OCTO by CIMB Niaga.svg"
   inkscape:version="1.4.3 (0d15f75, 2025-12-25)"
   xmlns:inkscape="http://www.inkscape.org/namespaces/inkscape"
   xmlns:sodipodi="http://sodipodi.sourceforge.net/DTD/sodipodi-0.dtd"
   xmlns:xlink="http://www.w3.org/1999/xlink"
   xmlns="http://www.w3.org/2000/svg"
   xmlns:svg="http://www.w3.org/2000/svg"
   xmlns:rdf="http://www.w3.org/1999/02/22-rdf-syntax-ns#"
   xmlns:cc="http://creativecommons.org/ns#"
   xmlns:dc="http://purl.org/dc/elements/1.1/">
  <sodipodi:namedview
     id="namedview2"
     pagecolor="#ffffff"
     bordercolor="#666666"
     borderopacity="1.0"
     inkscape:showpageshadow="2"
     inkscape:pageopacity="0.0"
     inkscape:pagecheckerboard="0"
     inkscape:deskcolor="#d1d1d1"
     inkscape:zoom="1"
     inkscape:cx="499.5"
     inkscape:cy="221"
     inkscape:window-width="1920"
     inkscape:window-height="1094"
     inkscape:window-x="-11"
     inkscape:window-y="-11"
     inkscape:window-maximized="1"
     inkscape:current-layer="svg2" />
  <title
     id="title1">Group 27</title>
  <defs
     id="defs1">
    <polygon
       id="path-1"
       points="750.78117,451.8808 0,451.8808 0,0.742 750.78117,0.742 " />
    <polygon
       id="path-3"
       points="2182.205,1 0,1 0,637.258 2182.205,637.258 " />
  </defs>
  <g
     id="🌟-Transfer---Other-Bank---Online----Unhappy-Copy"
     stroke="none"
     stroke-width="1"
     fill="none"
     fill-rule="evenodd"
     transform="matrix(0.71703169,0,0,0.71703169,0,-0.71703169)">
    <g
       id="Group-27">
      <path
         d="m 1025.7681,115.343 c 2.447,-3.221 3.667,-18.246 3.667,-21.762 V 20.738 c -0.396,-4.29 -1.967,-7.515 -4.697,-9.655 -2.73,-2.151 -5.872,-3.22 -9.393,-3.22 h -315.714 c -3.922,0 -7.198,1.17 -9.839,3.504 -2.63,2.34 -3.961,5.472 -3.961,9.371 v 0.813 c 0,4.691 2.189,9.087 5.889,11.962 18.095,14.061 34.909,29.003 53.327,55.461 17.744,25.466 18.647,31.199 24.113,31.199 h 31.404 v 309.285 c 0,3.978 1.694,7.85 4.708,10.457 2.841,2.457 5.85,3.677 9.047,3.677 h 86.053 c 4.09,0 7.404,-1.415 9.945,-4.251 2.523,-2.841 3.8,-6.028 3.8,-9.549 V 120.173 h 101.228 c 4.512,0 7.972,-1.61 10.423,-4.83"
         id="Fill-1"
         fill="#e72635" />
      <path
         d="m 1164.7368,324.7023 c -53.25,0 -96.41,-43.166 -96.41,-96.409 0,-53.25 43.16,-96.41 96.41,-96.41 53.255,0 96.409,43.16 96.409,96.41 0,53.243 -43.154,96.409 -96.409,96.409 m 216.396,-155.687 c -5.375,-19.07 -12.914,-36.97 -22.602,-53.695 -9.7,-16.719 -21.394,-31.923 -35.082,-45.628 -13.716,-13.694 -28.886,-25.377 -45.511,-35.054 -16.647,-9.688 -34.553,-17.227 -53.751,-22.597 -19.177,-5.376 -39.038,-8.073 -59.596,-8.073 -20.751,0 -40.663,2.697 -59.756,8.073 -13.733,3.872 -26.792,8.914 -39.254,15.015 -2.485,1.71 -5.778,4.462 -8.797,8.406 -3.599,4.697 -5.449,10.524 -5.449,16.441 v 57.868 c 0,15.137 -12.268,27.405 -27.399,27.405 h -45.617 c -11.728,0 -22.128,7.46 -25.961,18.524 -1.521,4.362 -2.909,8.814 -4.168,13.315 -5.282,19.082 -7.922,38.987 -7.922,59.723 0,20.725 2.64,40.637 7.922,59.707 5.292,19.07 12.825,36.87 22.614,53.411 9.788,16.53 21.488,31.577 35.092,45.177 13.6,13.599 28.72,25.287 45.366,35.065 16.631,9.783 34.503,17.321 53.573,22.58 19.093,5.298 39.005,7.939 59.756,7.939 20.558,0 40.419,-2.641 59.596,-7.939 19.198,-5.259 37.104,-12.797 53.751,-22.58 16.625,-9.778 31.795,-21.466 45.511,-35.065 13.688,-13.6 25.382,-28.647 35.082,-45.177 9.688,-16.541 17.227,-34.341 22.602,-53.411 5.388,-19.07 8.083,-38.982 8.083,-59.707 0,-20.736 -2.695,-40.641 -8.083,-59.723"
         id="Fill-3"
         fill="#e72635" />
      <g
         id="Group-7"
         transform="translate(0,0.258)">
        <mask
           id="mask-2"
           fill="#ffffff">
          <use
             xlink:href="#path-1"
             id="use1" />
        </mask>
        <g
           id="Clip-6" />
        <path
           d="m 221.332,321.8818 c -53.25,0 -96.409,-43.166 -96.409,-96.409 0,-53.25 43.159,-96.41 96.409,-96.41 53.244,0 96.41,43.16 96.41,96.41 0,53.243 -43.166,96.409 -96.41,96.409 m 517.972,-19.521 -93.068,-31.149 c -7.153,-2.396 -15.181,0.189 -19.259,6.546 -18.251,28.497 -51.166,46.692 -88.165,43.739 -24.268,-1.933 -46.302,-13.303 -62.224,-30.512 -11.555,-12.475 -19.911,-28.007 -23.472,-45.317 -1.353,-6.579 -1.95,-13.042 -1.95,-19.365 h -0.033 c 0,-61.25 -24.452,-116.767 -64.097,-157.415 -0.623,-0.652 -1.242,-1.325 -1.877,-1.988 C 344.333,26.0348 287.897,0.7418 225.578,0.7418 133.357,0.7418 54.113,56.1128 19.142,135.3858 6.88,163.2088 0,193.9448 0,226.3078 c 0,104.906 71.618,193.064 168.618,218.302 1.42,0.368 2.88,0.635 4.323,0.969 v 0.011 c 16.887,4.045 34.491,6.285 52.625,6.285 56.42,0 107.976,-20.775 147.532,-55.015 0,0 11.454,-10.569 13.103,-12.163 40.898,41.417 97.618,67.184 160.423,67.184 25.131,0 49.243,-4.241 71.813,-11.84 57.21,-19.225 104.209,-60.659 130.582,-114.176 4.524,-9.186 0,-20.262 -9.715,-23.504"
           id="Fill-5"
           fill="#e72635"
           mask="url(#mask-2)" />
      </g>
      <path
         d="m 546.6289,131.07 c 29.511,0 55.84,13.416 73.351,34.458 4.757,5.716 12.841,7.426 19.71,4.541 l 90.148,-37.94 c 9.889,-4.162 13.622,-16.196 7.916,-25.288 C 697.8759,43.291 627.2109,1.01 546.6289,1.01 c -56.977,0 -108.984,21.165 -148.679,56.025 32.72,33.259 55.902,75.912 65.099,123.502 16.263,-29.472 47.545,-49.467 83.58,-49.467"
         id="Fill-8"
         fill="#e72635" />
      <mask
         id="mask-4"
         fill="#ffffff">
        <use
           xlink:href="#path-3"
           id="use2" />
      </mask>
      <g
         id="Clip-13" />
      <text
         id="BY"
         mask="url(#mask-4)"
         font-family="Helvetica"
         font-size="100.275px"
         font-weight="normal"
         fill="#790008"><tspan
           x="459.3782"
           y="585.80017"
           id="tspan2">BY</tspan></text>
      <polygon
         id="Fill-18"
         fill="#790008"
         mask="url(#mask-4)"
         points="740.908,499.242 623.401,499.242 623.401,616.713 740.908,616.713 " />
      <polygon
         id="Fill-19"
         fill="#ffffff"
         mask="url(#mask-4)"
         points="666.8954,557.9698 729.3624,557.9698 701.7544,521.4128 639.2904,521.4128 " />
      <polygon
         id="Fill-20"
         fill="#ed1c24"
         mask="url(#mask-4)"
         points="639.2903,594.5194 701.7543,594.5194 729.3623,557.9694 666.8953,557.9694 " />
      <path
         d="m 828.1772,578.3361 c -4.455,3.573 -9.823,5.41 -15.521,5.41 -13.836,0 -24.573,-10.968 -24.573,-25.039 0,-14.056 10.737,-25.05 24.573,-25.05 5.698,0 11.066,1.876 15.521,5.404 l 0.215,0.186 10.652,-10.655 -0.261,-0.208 c -7.248,-6.308 -16.545,-9.784 -26.127,-9.784 -22.357,0 -40.547,18.007 -40.547,40.107 0,22.099 18.19,40.093 40.547,40.093 9.582,0 18.879,-3.478 26.127,-9.78 l 0.261,-0.219 -10.652,-10.652 z m 25.34,18.216 h 15.324 v -75.707 h -15.324 z m 75.684,-27.331 c -0.529,-1.005 -26.704,-48.535 -26.704,-48.535 h -14.927 v 75.732 h 15.27 v -45.25 c 1.122,1.998 26.361,45.834 26.361,45.834 0,0 25.183,-43.82 26.332,-45.804 v 45.22 h 15.26 v -75.732 h -14.937 c 0,0 -26.094,47.53 -26.655,48.535 z m 89.782,13.641 h -14.963 v -17.857 h 14.963 c 6.977,0 9.457,4.605 9.457,8.883 0,4.34 -2.48,8.974 -9.457,8.974 z m -14.963,-48.285 h 14.01 c 5.864,0 9.379,3.113 9.379,8.329 0,5.201 -3.515,8.318 -9.379,8.318 h -14.01 z m 29.821,23.157 c 3.329,-1.844 8.857,-7.003 8.857,-15.484 0,-13.201 -9.001,-21.405 -23.503,-21.405 h -30.487 v 75.707 h 31.727 c 14.404,0 23.32,-8.377 23.32,-21.926 0,-10.166 -6.001,-14.888 -9.914,-16.892 z"
         id="Fill-21"
         fill="#790008"
         mask="url(#mask-4)" />
      <path
         d="m 1204.6782,521.2434 h 10.975 l 26.345,75.061 h -9.122 l -7.176,-20.217 h -31.563 l -6.859,20.693 h -10.27 z m -7.392,46.026 h 25.282 l -12.434,-36.575 h -0.205 z"
         id="Fill-22"
         fill="#790008"
         mask="url(#mask-4)" />
      <path
         d="m 1357.3315,521.2434 h 11.018 l 26.289,75.061 h -9.144 l -7.134,-20.217 h -31.566 l -6.869,20.693 h -10.238 z m -7.395,46.026 h 25.289 l -12.466,-36.575 h -0.18 z"
         id="Fill-23"
         fill="#790008"
         mask="url(#mask-4)" />
      <path
         d="m 1315.1304,531.0202 c 0,0 -28.457,-22.583 -53.97,1.482 0,0 -11.461,9.966 -10.831,30.904 0,0 1.328,34.376 39.287,34.856 0,0 16.197,-0.982 27.018,-7.356 v -35.828 h -25.036 v 6.846 h 17.674 v 23.575 c 0,0 -26.032,12.283 -40.766,-2.461 0,0 -11.755,-6.376 -9.336,-28.443 0,0 4.931,-26.848 32.102,-25.21 0,0 14.723,1.795 18.663,8.169 z"
         id="Fill-24"
         fill="#790008"
         mask="url(#mask-4)" />
      <polygon
         id="Fill-25"
         fill="#790008"
         mask="url(#mask-4)"
         points="1164.46,520.708 1156.602,520.708 1156.602,596.304 1164.46,596.304 " />
      <polygon
         id="Fill-26"
         fill="#790008"
         mask="url(#mask-4)"
         points="1083.4509,534.2222 1128.6289,596.3042 1136.4869,596.3042 1136.4869,520.7082 1128.6289,520.7082 1128.6289,582.5492 1083.4509,520.7082 1075.6019,520.7082 1075.6019,596.3042 1083.4509,596.3042 " />
    </g>
  </g>
  <metadata
     id="metadata2">
    <rdf:RDF>
      <cc:Work
         rdf:about="">
        <dc:title>Group 27</dc:title>
      </cc:Work>
    </rdf:RDF>
  </metadata>
</svg>
